<?xml version="1.0" encoding="UTF-8" standalone="no"?>
<!-- Created with Inkscape (http://www.inkscape.org/) -->

<svg
   width="116.03839mm"
   height="17.007748mm"
   viewBox="0 0 116.03839 17.007748"
   version="1.1"
   id="svg1"
   xmlns="http://www.w3.org/2000/svg"
   xmlns:svg="http://www.w3.org/2000/svg">
  <defs
     id="defs1" />
  <g
     id="layer1"
     transform="translate(14444.295,12265.178)">
    <g
       id="text3"
       style="font-size:22.5778px;font-family:'Neon Future 2.0';-inkscape-font-specification:'Neon Future 2.0, ';fill:#000080;stroke-width:0.264583"
       aria-label="howibuild">
      <path
         style="fill:#ffffff"
         d="m -14443.273,-12264.925 q 0.573,0 0.926,0.584 0.09,0.242 0.09,0.408 v 4.002 q 1.477,-0.783 3.043,-0.783 h 2.37 q 1.929,0 3.318,1.069 0.452,0.386 0.684,0.695 1.08,1.433 1.08,3.362 v 6.427 q 0,0.496 -0.496,0.838 -0.265,0.143 -0.518,0.143 -0.585,0 -0.915,-0.573 -0.111,-0.198 -0.111,-0.573 v -6.24 q 0,-1.576 -0.948,-2.447 -0.837,-0.662 -2.105,-0.662 h -2.326 q -1.378,0 -2.547,0.805 -0.507,0.419 -0.661,0.772 -0.342,0.518 -0.882,0.518 -0.519,0 -0.86,-0.463 -0.166,-0.232 -0.166,-0.639 v -6.108 q 0,-0.717 0.54,-1.003 0.243,-0.132 0.486,-0.132 z m -0.03,10.506 h 0.06 q 0.529,0 0.86,0.507 0.132,0.253 0.132,0.474 v 4.255 q 0,0.529 -0.518,0.871 -0.254,0.132 -0.496,0.132 -0.519,0 -0.86,-0.463 -0.166,-0.242 -0.166,-0.65 v -4.013 q 0,-0.794 0.695,-1.058 0.154,-0.06 0.297,-0.06 z m 19.558,-6.35 h 1.951 q 3.517,0 4.818,2.745 0.496,1.091 0.496,2.635 v 1.83 q 0,3.23 -2.271,4.63 -1.224,0.749 -2.955,0.749 h -2.139 q -2.976,0 -4.409,-2.16 -0.805,-1.356 -0.805,-2.933 v -0.187 q 0,-0.518 0.529,-0.86 0.232,-0.121 0.496,-0.121 0.562,0 0.904,0.551 0.121,0.176 0.121,0.882 0,0.176 0.155,0.805 0.308,1.025 1.025,1.466 0.761,0.507 1.984,0.507 h 2.139 q 3.175,0 3.175,-3.307 v -1.852 q 0,-2.327 -1.532,-3.021 -0.684,-0.309 -1.709,-0.309 h -2.006 q -2.172,0 -2.867,1.433 -0.319,0.673 -0.992,0.673 -0.529,0 -0.871,-0.518 -0.121,-0.243 -0.121,-0.474 v -0.08 q 0,-0.408 0.606,-1.246 1.411,-1.841 4.278,-1.841 z m 11.024,0 h 0.07 q 0.54,0 0.871,0.551 0.121,0.187 0.121,0.65 v 1.753 q 0,0.54 -0.198,0.772 -0.342,0.43 -0.827,0.43 -0.562,0 -0.893,-0.529 -0.132,-0.232 -0.132,-0.452 v -2.205 q 0,-0.474 0.474,-0.816 0.253,-0.154 0.518,-0.154 z m 14.762,0 h 0.09 q 0.496,0 0.86,0.529 0.11,0.242 0.11,0.584 v 6.163 q 0,0.496 -0.32,0.838 -3.054,4.09 -3.131,4.167 -0.319,0.308 -0.716,0.308 h -0.03 q -0.596,0 -0.96,-0.628 -3.241,-4.851 -3.241,-4.873 h -0.01 q -3.373,5.083 -3.461,5.171 -0.32,0.33 -0.75,0.33 -0.606,0 -1.003,-0.661 -3.065,-4.068 -3.065,-4.09 -0.121,-0.243 -0.121,-0.452 v -0.08 q 0,-0.507 0.507,-0.849 0.231,-0.132 0.529,-0.132 0.562,0 0.959,0.606 2.139,2.855 2.15,2.866 0,-0.03 3.484,-5.236 0.341,-0.353 0.749,-0.353 h 0.06 q 0.463,0 0.794,0.419 3.429,5.137 3.451,5.159 0,0 2.094,-2.789 v -6.008 q 0,-0.496 0.463,-0.838 0.254,-0.154 0.519,-0.154 z"
         id="path1" />
      <path
         style="fill:#22d3ee"
         d="m -14392.297,-12265.179 h 0.09 q 0.573,0 0.97,0.54 0.199,0.32 0.199,0.618 v 0.1 q 0,0.562 -0.54,0.959 -0.32,0.198 -0.629,0.198 h -0.08 q -0.562,0 -0.97,-0.54 -0.199,-0.331 -0.199,-0.672 0,-0.64 0.618,-1.048 0.297,-0.154 0.54,-0.154 z m 0.01,4.41 h 0.09 q 0.463,0 0.805,0.452 0.176,0.242 0.176,0.65 v 1.94 q 0,0.805 -0.738,1.07 -0.155,0.03 -0.287,0.04 -0.54,0 -0.882,-0.507 -0.143,-0.254 -0.143,-0.485 v -2.183 q 0,-0.485 0.463,-0.827 0.253,-0.154 0.518,-0.154 z m 0.01,6.317 h 0.07 q 0.551,0 0.893,0.584 0.1,0.209 0.1,0.529 v 4.046 q 0,0.761 -0.661,1.047 -0.21,0.07 -0.364,0.07 -0.562,0 -0.904,-0.54 -0.121,-0.242 -0.121,-0.463 v -4.277 q 0,-0.485 0.474,-0.838 0.276,-0.154 0.518,-0.154 z"
         id="path2" />
      <path
         style="fill:#ffffff"
         d="m -14386.311,-12264.925 q 0.485,0 0.827,0.418 0.198,0.265 0.198,0.64 v 4.035 q 0.475,-0.298 0.949,-0.485 0.97,-0.408 2.458,-0.408 h 1.632 q 1.675,0 2.656,0.463 1.522,0.65 2.282,2.205 0.53,1.168 0.53,2.535 v 2.139 q 0,2.602 -1.731,4.101 -1.4,1.102 -3.385,1.102 h -6.438 q -0.562,0 -0.893,-0.573 -0.1,-0.209 -0.1,-0.463 v -4.189 q 0,-0.562 0.562,-0.904 0.254,-0.11 0.452,-0.11 0.485,0 0.827,0.408 0.198,0.275 0.198,0.65 v 3.142 h 5.391 q 1.61,0 2.426,-0.981 0.65,-0.86 0.65,-2.161 v -2.172 q 0,-1.631 -0.97,-2.491 -0.551,-0.441 -1.29,-0.574 -0.386,-0.09 -1.102,-0.09 h -1.753 q -1.323,0 -2.117,0.485 -0.408,0.21 -1.201,0.971 -0.486,0.54 -0.596,0.54 -0.198,0.11 -0.43,0.11 h -0.06 q -0.551,0 -0.893,-0.573 -0.1,-0.221 -0.1,-0.463 v -6.295 q 0,-0.562 0.562,-0.904 0.254,-0.11 0.452,-0.11 z m 15.467,4.156 h 0.08 q 0.519,0 0.849,0.518 0.144,0.253 0.144,0.474 v 2.172 q 0,0.496 -0.485,0.849 -0.287,0.154 -0.541,0.154 -0.551,0 -0.882,-0.518 -0.143,-0.221 -0.143,-0.585 v -1.973 q 0,-0.783 0.739,-1.047 0.143,-0.04 0.242,-0.04 z m 10.54,0 h 0.08 q 0.507,0 0.849,0.496 0.143,0.253 0.143,0.507 v 10.605 q 0,0.507 -0.529,0.86 -0.243,0.121 -0.496,0.121 -0.574,0 -0.915,-0.562 -0.09,-0.22 -0.09,-0.319 h -0.01 q -1.278,0.881 -3.285,0.881 h -1.929 q -3.737,0 -4.961,-3.042 -0.375,-1.048 -0.375,-2.183 0,-0.606 0.573,-0.937 0.221,-0.1 0.408,-0.1 h 0.08 q 0.552,0 0.882,0.562 0.122,0.154 0.122,0.805 0.07,0.595 0.143,0.86 0.342,1.091 1.058,1.51 0.739,0.485 2.062,0.485 h 1.94 q 2.183,0 2.878,-1.378 0.396,-0.761 0.396,-1.764 v -6.262 q 0,-0.573 0.309,-0.849 0.309,-0.297 0.673,-0.297 z m 6.195,-4.41 h 0.09 q 0.574,0 0.971,0.54 0.198,0.32 0.198,0.618 v 0.1 q 0,0.562 -0.54,0.959 -0.32,0.198 -0.629,0.198 h -0.08 q -0.562,0 -0.97,-0.54 -0.198,-0.331 -0.198,-0.672 0,-0.64 0.617,-1.048 0.298,-0.154 0.54,-0.154 z m 0.01,4.41 h 0.09 q 0.463,0 0.805,0.452 0.177,0.242 0.177,0.65 v 1.94 q 0,0.805 -0.739,1.07 -0.154,0.03 -0.287,0.04 -0.54,0 -0.882,-0.507 -0.143,-0.254 -0.143,-0.485 v -2.183 q 0,-0.485 0.463,-0.827 0.254,-0.154 0.518,-0.154 z m 0.01,6.317 h 0.07 q 0.552,0 0.893,0.584 0.1,0.209 0.1,0.529 v 4.046 q 0,0.761 -0.662,1.047 -0.209,0.07 -0.364,0.07 -0.562,0 -0.904,-0.54 -0.121,-0.242 -0.121,-0.463 v -4.277 q 0,-0.485 0.474,-0.838 0.276,-0.154 0.518,-0.154 z m 5.656,-10.473 h 0.11 q 0.452,0 0.805,0.463 0.154,0.264 0.154,0.518 v 6.372 q 0,0.507 -0.485,0.838 -0.265,0.154 -0.529,0.154 -0.584,0 -0.915,-0.562 -0.11,-0.199 -0.11,-0.629 v -5.986 q 0,-0.573 0.275,-0.838 0.32,-0.33 0.695,-0.33 z m 0.01,10.506 h 0.07 q 0.562,0 0.893,0.562 0.11,0.154 0.11,0.761 0,0.297 0.166,0.97 0.363,1.058 1.124,1.488 0.728,0.419 1.995,0.419 h 0.971 q 0.518,0 0.87,0.529 0.122,0.254 0.122,0.441 v 0.08 q 0,0.563 -0.585,0.893 -0.198,0.1 -0.518,0.1 h -0.838 q -2.414,0 -3.726,-1.212 -0.286,-0.232 -0.485,-0.485 -1.146,-1.444 -1.146,-3.506 0,-0.628 0.606,-0.948 0.209,-0.09 0.375,-0.09 z m 19.083,-10.506 h 0.1 q 0.507,0 0.86,0.529 0.121,0.242 0.121,0.573 v 6.129 q 0,0.772 -0.683,1.048 -0.155,0.06 -0.298,0.06 h -0.1 q -0.463,0 -0.926,-0.562 -0.75,-0.739 -1.036,-0.893 -0.541,-0.419 -1.5,-0.596 -0.33,-0.04 -1.025,-0.04 h -1.433 q -1.367,0 -1.918,0.287 -0.805,0.309 -1.235,1.146 -0.364,0.783 -0.364,1.632 v 2.326 q 0,1.389 0.805,2.271 0.838,0.805 2.26,0.805 h 5.402 v -3.23 q 0,-0.474 0.474,-0.816 0.264,-0.154 0.496,-0.154 h 0.09 q 0.54,0 0.882,0.562 0.11,0.198 0.11,0.595 v 3.925 q 0,0.562 -0.275,0.827 -0.331,0.33 -0.706,0.33 h -6.482 q -1.996,0 -3.407,-1.135 -0.485,-0.452 -0.628,-0.65 -0.386,-0.541 -0.562,-0.949 -0.496,-1.146 -0.496,-2.348 v -2.381 q 0,-1.731 0.948,-3.153 0.209,-0.287 0.628,-0.694 0.783,-0.673 1.676,-0.96 0.827,-0.286 2.315,-0.286 h 1.257 q 1.488,0 2.061,0.198 0.375,0.08 0.86,0.287 0.375,0.176 0.761,0.408 v -4.112 q 0,-0.463 0.463,-0.816 0.275,-0.154 0.507,-0.154 z"
         id="path3" />
    </g>
  </g>
</svg>
