<?xml version="1.0" encoding="UTF-8" standalone="no"?>
<!-- Created with Inkscape (http://www.inkscape.org/) -->

<svg
   width="59.071327mm"
   height="45.23135mm"
   viewBox="0 0 59.071327 45.23135"
   version="1.1"
   id="svg1"
   xmlns="http://www.w3.org/2000/svg"
   xmlns:svg="http://www.w3.org/2000/svg">
  <defs
     id="defs1" />
  <g
     id="layer1"
     transform="translate(14444.301,12265.179)">
    <g
       id="text3"
       style="font-size:22.5778px;font-family:'Neon Future 2.0';-inkscape-font-specification:'Neon Future 2.0, ';fill:#000080;stroke-width:0.264583"
       aria-label="howi&#10;build">
      <path
         style="fill:#ffffff"
         d="m -14443.273,-12264.925 q 0.573,0 0.926,0.584 0.09,0.242 0.09,0.408 v 4.002 q 1.477,-0.783 3.043,-0.783 h 2.37 q 1.929,0 3.318,1.069 0.452,0.386 0.684,0.695 1.08,1.433 1.08,3.362 v 6.427 q 0,0.496 -0.496,0.838 -0.265,0.143 -0.518,0.143 -0.585,0 -0.915,-0.573 -0.111,-0.198 -0.111,-0.573 v -6.24 q 0,-1.576 -0.948,-2.447 -0.837,-0.662 -2.105,-0.662 h -2.326 q -1.378,0 -2.547,0.805 -0.507,0.419 -0.661,0.772 -0.342,0.518 -0.882,0.518 -0.519,0 -0.86,-0.463 -0.166,-0.232 -0.166,-0.639 v -6.108 q 0,-0.717 0.54,-1.003 0.243,-0.132 0.486,-0.132 z m -0.03,10.506 h 0.06 q 0.529,0 0.86,0.507 0.132,0.253 0.132,0.474 v 4.255 q 0,0.529 -0.518,0.871 -0.254,0.132 -0.496,0.132 -0.519,0 -0.86,-0.463 -0.166,-0.242 -0.166,-0.65 v -4.013 q 0,-0.794 0.695,-1.058 0.154,-0.06 0.297,-0.06 z m 19.558,-6.35 h 1.951 q 3.517,0 4.818,2.745 0.496,1.091 0.496,2.635 v 1.83 q 0,3.23 -2.271,4.63 -1.224,0.749 -2.955,0.749 h -2.139 q -2.976,0 -4.409,-2.16 -0.805,-1.356 -0.805,-2.933 v -0.187 q 0,-0.518 0.529,-0.86 0.232,-0.121 0.496,-0.121 0.562,0 0.904,0.551 0.121,0.176 0.121,0.882 0,0.176 0.155,0.805 0.308,1.025 1.025,1.466 0.761,0.507 1.984,0.507 h 2.139 q 3.175,0 3.175,-3.307 v -1.852 q 0,-2.327 -1.532,-3.021 -0.684,-0.309 -1.709,-0.309 h -2.006 q -2.172,0 -2.867,1.433 -0.319,0.673 -0.992,0.673 -0.529,0 -0.871,-0.518 -0.121,-0.243 -0.121,-0.474 v -0.08 q 0,-0.408 0.606,-1.246 1.411,-1.841 4.278,-1.841 z m 11.024,0 h 0.07 q 0.54,0 0.871,0.551 0.121,0.187 0.121,0.65 v 1.753 q 0,0.54 -0.198,0.772 -0.342,0.43 -0.827,0.43 -0.562,0 -0.893,-0.529 -0.132,-0.232 -0.132,-0.452 v -2.205 q 0,-0.474 0.474,-0.816 0.253,-0.154 0.518,-0.154 z m 14.762,0 h 0.09 q 0.496,0 0.86,0.529 0.11,0.242 0.11,0.584 v 6.163 q 0,0.496 -0.32,0.838 -3.054,4.09 -3.131,4.167 -0.319,0.308 -0.716,0.308 h -0.03 q -0.596,0 -0.96,-0.628 -3.241,-4.851 -3.241,-4.873 h -0.01 q -3.373,5.083 -3.461,5.171 -0.32,0.33 -0.75,0.33 -0.606,0 -1.003,-0.661 -3.065,-4.068 -3.065,-4.09 -0.121,-0.243 -0.121,-0.452 v -0.08 q 0,-0.507 0.507,-0.849 0.231,-0.132 0.529,-0.132 0.562,0 0.959,0.606 2.139,2.855 2.15,2.866 0,-0.03 3.484,-5.236 0.341,-0.353 0.749,-0.353 h 0.06 q 0.463,0 0.794,0.419 3.429,5.137 3.451,5.159 0,0 2.094,-2.789 v -6.008 q 0,-0.496 0.463,-0.838 0.254,-0.154 0.519,-0.154 z"
         id="path10" />
      <path
         style="fill:#22d3ee"
         d="m -14392.297,-12265.179 h 0.09 q 0.573,0 0.97,0.54 0.199,0.32 0.199,0.618 v 0.1 q 0,0.562 -0.54,0.959 -0.32,0.198 -0.629,0.198 h -0.08 q -0.562,0 -0.97,-0.54 -0.199,-0.331 -0.199,-0.672 0,-0.64 0.618,-1.048 0.297,-0.154 0.54,-0.154 z m 0.01,4.41 h 0.09 q 0.463,0 0.805,0.452 0.176,0.242 0.176,0.65 v 1.94 q 0,0.805 -0.738,1.07 -0.155,0.03 -0.287,0.04 -0.54,0 -0.882,-0.507 -0.143,-0.254 -0.143,-0.485 v -2.183 q 0,-0.485 0.463,-0.827 0.253,-0.154 0.518,-0.154 z m 0.01,6.317 h 0.07 q 0.551,0 0.893,0.584 0.1,0.209 0.1,0.529 v 4.046 q 0,0.761 -0.661,1.047 -0.21,0.07 -0.364,0.07 -0.562,0 -0.904,-0.54 -0.121,-0.242 -0.121,-0.463 v -4.277 q 0,-0.485 0.474,-0.838 0.276,-0.154 0.518,-0.154 z"
         id="path11" />
      <path
         style="fill:#ffffff"
         d="m -14443.284,-12236.703 q 0.485,0 0.826,0.419 0.199,0.264 0.199,0.639 v 4.035 q 0.474,-0.298 0.948,-0.485 0.97,-0.408 2.458,-0.408 h 1.632 q 1.676,0 2.657,0.463 1.521,0.651 2.282,2.205 0.529,1.169 0.529,2.536 v 2.138 q 0,2.602 -1.731,4.101 -1.4,1.103 -3.384,1.103 h -6.439 q -0.562,0 -0.892,-0.574 -0.1,-0.209 -0.1,-0.463 v -4.189 q 0,-0.562 0.563,-0.904 0.253,-0.11 0.452,-0.11 0.485,0 0.826,0.408 0.199,0.275 0.199,0.65 v 3.142 h 5.391 q 1.609,0 2.425,-0.981 0.65,-0.86 0.65,-2.161 v -2.172 q 0,-1.631 -0.97,-2.491 -0.551,-0.441 -1.29,-0.573 -0.385,-0.09 -1.102,-0.09 h -1.753 q -1.323,0 -2.116,0.485 -0.408,0.209 -1.202,0.97 -0.485,0.54 -0.595,0.54 -0.199,0.11 -0.43,0.11 h -0.06 q -0.551,0 -0.892,-0.573 -0.1,-0.221 -0.1,-0.463 v -6.295 q 0,-0.562 0.563,-0.904 0.253,-0.11 0.452,-0.11 z m 15.467,4.156 h 0.08 q 0.518,0 0.849,0.518 0.143,0.254 0.143,0.474 v 2.172 q 0,0.496 -0.485,0.849 -0.287,0.154 -0.54,0.154 -0.551,0 -0.882,-0.518 -0.144,-0.22 -0.144,-0.584 v -1.974 q 0,-0.782 0.739,-1.047 0.143,-0.04 0.243,-0.04 z m 10.539,0 h 0.08 q 0.507,0 0.849,0.496 0.143,0.254 0.143,0.507 v 10.606 q 0,0.507 -0.529,0.859 -0.242,0.122 -0.496,0.122 -0.573,0 -0.915,-0.563 -0.09,-0.22 -0.09,-0.319 h -0.01 q -1.279,0.882 -3.285,0.882 h -1.93 q -3.737,0 -4.961,-3.043 -0.375,-1.047 -0.375,-2.183 0,-0.606 0.574,-0.937 0.22,-0.1 0.408,-0.1 h 0.08 q 0.551,0 0.882,0.562 0.121,0.154 0.121,0.805 0.07,0.595 0.143,0.86 0.342,1.091 1.059,1.51 0.738,0.485 2.061,0.485 h 1.941 q 2.182,0 2.877,-1.378 0.397,-0.76 0.397,-1.764 v -6.262 q 0,-0.573 0.308,-0.848 0.309,-0.298 0.673,-0.298 z m 6.196,-4.41 h 0.09 q 0.573,0 0.97,0.54 0.198,0.32 0.198,0.618 v 0.1 q 0,0.562 -0.54,0.959 -0.32,0.199 -0.628,0.199 h -0.08 q -0.563,0 -0.971,-0.541 -0.198,-0.33 -0.198,-0.672 0,-0.64 0.617,-1.047 0.298,-0.155 0.541,-0.155 z m 0.01,4.41 h 0.09 q 0.463,0 0.805,0.452 0.176,0.242 0.176,0.65 v 1.941 q 0,0.804 -0.739,1.069 -0.154,0.03 -0.286,0.04 -0.541,0 -0.882,-0.507 -0.144,-0.254 -0.144,-0.485 v -2.183 q 0,-0.485 0.463,-0.827 0.254,-0.154 0.519,-0.154 z m 0.01,6.317 h 0.07 q 0.551,0 0.893,0.584 0.1,0.21 0.1,0.529 v 4.046 q 0,0.761 -0.662,1.048 -0.209,0.07 -0.363,0.07 -0.563,0 -0.904,-0.54 -0.122,-0.243 -0.122,-0.463 v -4.278 q 0,-0.485 0.474,-0.838 0.276,-0.154 0.519,-0.154 z m 5.655,-10.473 h 0.11 q 0.452,0 0.805,0.463 0.154,0.264 0.154,0.518 v 6.372 q 0,0.507 -0.485,0.838 -0.264,0.154 -0.529,0.154 -0.584,0 -0.915,-0.562 -0.11,-0.198 -0.11,-0.628 v -5.987 q 0,-0.573 0.276,-0.837 0.319,-0.331 0.694,-0.331 z m 0.01,10.506 h 0.07 q 0.563,0 0.893,0.562 0.11,0.155 0.11,0.761 0,0.298 0.166,0.97 0.364,1.058 1.124,1.488 0.728,0.419 1.996,0.419 h 0.97 q 0.518,0 0.871,0.529 0.121,0.254 0.121,0.441 v 0.08 q 0,0.562 -0.584,0.892 -0.199,0.1 -0.518,0.1 h -0.838 q -2.415,0 -3.726,-1.213 -0.287,-0.231 -0.486,-0.485 -1.146,-1.444 -1.146,-3.506 0,-0.628 0.606,-0.948 0.21,-0.09 0.375,-0.09 z m 19.083,-10.506 h 0.1 q 0.508,0 0.86,0.529 0.122,0.242 0.122,0.573 v 6.13 q 0,0.771 -0.684,1.047 -0.154,0.06 -0.298,0.06 h -0.1 q -0.463,0 -0.926,-0.562 -0.749,-0.739 -1.036,-0.893 -0.54,-0.419 -1.499,-0.595 -0.331,-0.04 -1.026,-0.04 h -1.433 q -1.367,0 -1.918,0.286 -0.805,0.309 -1.235,1.147 -0.364,0.782 -0.364,1.631 v 2.326 q 0,1.389 0.805,2.271 0.838,0.805 2.26,0.805 h 5.402 v -3.23 q 0,-0.474 0.474,-0.816 0.265,-0.154 0.496,-0.154 h 0.09 q 0.541,0 0.882,0.562 0.111,0.199 0.111,0.596 v 3.924 q 0,0.562 -0.276,0.827 -0.331,0.331 -0.706,0.331 h -6.482 q -1.995,0 -3.406,-1.136 -0.485,-0.452 -0.629,-0.65 -0.386,-0.54 -0.562,-0.948 -0.496,-1.147 -0.496,-2.348 v -2.382 q 0,-1.731 0.948,-3.153 0.209,-0.286 0.628,-0.694 0.783,-0.673 1.676,-0.959 0.827,-0.287 2.315,-0.287 h 1.257 q 1.488,0 2.061,0.198 0.375,0.08 0.86,0.287 0.375,0.176 0.761,0.408 v -4.112 q 0,-0.463 0.463,-0.816 0.276,-0.154 0.507,-0.154 z"
         id="path12" />
    </g>
  </g>
</svg>
